HIERARCHY
ROOT Hips
{
  OFFSET 119.38 91.1609 124.89
  CHANNELS 6 Xposition Yposition Zposition Zrotation Xrotation Yrotation
  JOINT ToSpine
  {
    OFFSET -2.69724 7.43032 -0.144315
    CHANNELS 3 Zrotation Xrotation Yrotation
    JOINT Spine
    {
      OFFSET -0.0310711 10.7595 1.96963
      CHANNELS 3 Zrotation Xrotation Yrotation
      JOINT Spine1
      {
        OFFSET 19.9056 3.91189 0.764692
        CHANNELS 3 Zrotation Xrotation Yrotation
        JOINT Neck
        {
          OFFSET 25.9749 7.03908 -0.130764
          CHANNELS 3 Zrotation Xrotation Yrotation
          JOINT Head
          {
            OFFSET 9.52751 0.295786 -0.907742
            CHANNELS 3 Zrotation Xrotation Yrotation
            End Site
            {
              OFFSET 16.4037 0.713936 2.7358
            }
          }
        }
        JOINT LeftShoulder
        {
          OFFSET 17.7449 4.33886 11.7777
          CHANNELS 3 Zrotation Xrotation Yrotation
          JOINT LeftArm
          {
            OFFSET 0.911315 1.27913 9.80584
            CHANNELS 3 Zrotation Xrotation Yrotation
            JOINT LeftForeArm
            {
              OFFSET 28.6126 1.18197 -3.53199
              CHANNELS 3 Zrotation Xrotation Yrotation
              JOINT LeftHand
              {
                OFFSET 27.5088 0.0218783 0.327423
                CHANNELS 3 Zrotation Xrotation Yrotation
                End Site
                {
                  OFFSET 18.6038 -0.000155887 0.382096
                }
              }
            }
          }
        }
        JOINT RightShoulder
        {
          OFFSET 17.1009 2.89543 -12.2328
          CHANNELS 3 Zrotation Xrotation Yrotation
          JOINT RightArm
          {
            OFFSET 1.4228 0.178766 -10.211
            CHANNELS 3 Zrotation Xrotation Yrotation
            JOINT RightForeArm
            {
              OFFSET 28.733 1.87905 2.64907
              CHANNELS 3 Zrotation Xrotation Yrotation
              JOINT RightHand
              {
                OFFSET 27.4588 0.290562 -0.101845
                CHANNELS 3 Zrotation Xrotation Yrotation
                End Site
                {
                  OFFSET 17.8396 -0.255518 -0.000602873
                }
              }
            }
          }
        }
      }
    }
  }
  JOINT LeftUpLeg
  {
    OFFSET -5.61296 -2.22332 -10.2353
    CHANNELS 3 Zrotation Xrotation Yrotation
    JOINT LeftLeg
    {
      OFFSET 2.56703 -44.7417 -7.93097
      CHANNELS 3 Zrotation Xrotation Yrotation
      JOINT LeftFoot
      {
        OFFSET 3.16933 -46.5642 -3.96578
        CHANNELS 3 Zrotation Xrotation Yrotation
        JOINT LeftToeBase
        {
          OFFSET 0.346054 -6.02161 12.8035
          CHANNELS 3 Zrotation Xrotation Yrotation
          End Site
          {
            OFFSET 0.134235 -1.35082 5.13018
          }
        }
      }
    }
  }
  JOINT RightUpLeg
  {
    OFFSET -5.7928 -1.72406 10.6446
    CHANNELS 3 Zrotation Xrotation Yrotation
    JOINT RightLeg
    {
      OFFSET -2.57161 -44.7178 -7.85259
      CHANNELS 3 Zrotation Xrotation Yrotation
      JOINT RightFoot
      {
        OFFSET -3.10148 -46.5936 -4.03391
        CHANNELS 3 Zrotation Xrotation Yrotation
        JOINT RightToeBase
        {
          OFFSET -0.0828122 -6.13587 12.8035
          CHANNELS 3 Zrotation Xrotation Yrotation
          End Site
          {
            OFFSET -0.131328 -1.35082 5.13018
          }
        }
      }
    }
  }
}
MOTION
Frames:	19
Frame Time:	0.0333333
207 98.6024 207.426 -83.1849 48.9886 176.112 -70.1915 0 88.8779 115.167 71.9728 -28.7011 9.04975 22.3076 -2.11813 -145.554 24.4732 166.491 -139.686 60.3595 159.809 2.25883 1.71089 -21.2321 -82.3592 27.5499 -89.3876 23.3324 23.0407 -44.326 10.29 -0.589977 -4.721 0.475519 -2.5648 23.9995 -46.9756 -49.0142 103.617 1.08121 1.60595 43.2327 11.9381 0.951832 9.2232 -35.4828 -5.13458 92.1874 -1.67577 40.1293 0.00794764 0.956712 9.92179 0.396476 -4.65483 -13.3237 11.2924 -52.3369 8.41785 94.0355 136.054 85.415 -139.226 -5.92659 -0.579337 0.900529 2.12077 8.5914 -10.9919 
196.428 96.6142 197.013 -92.7047 48.1558 -179.915 -70.1915 0 88.8779 122.3 68.7272 -42.2017 6.92515 20.6454 -0.365219 -144.302 24.2739 167.476 -143.927 61.4484 164.871 2.12221 2.41535 -19.3594 -83.4954 26.1169 -89.9845 25.3752 26.0416 -43.9099 9.16617 -0.612979 -5.76161 0.42017 -2.22173 22.8707 -49.4274 -51.1108 97.2646 6.6891 -4.63672 40.8543 9.75883 0.84244 10.1519 -45.0021 -8.71371 94.8214 -3.08057 47.4164 -5.63527 6.19383 14.0463 -0.604138 -5.67803 -18.3868 14.6646 -49.3191 5.5482 95.3656 159.624 79.713 -162.648 -6.46849 -2.31015 0.989863 6.08419 -1.29398 -15.5716 
185.368 94.3859 186.999 -96.7611 46.16 179.321 -70.1915 0 88.8779 114.678 68.7668 -39.587 8.72361 18.854 0.102797 -144.938 23.7455 170.234 -152.478 62.4245 174.248 2.17157 2.38323 -19.8308 -85.2749 24.1523 -92.9966 22.3249 25.911 -39.5909 13.2467 -0.698768 -4.22249 0.37931 -1.90417 22.1827 -58.1409 -51.8345 86.6311 15.1296 -14.4537 41.1907 7.65907 0.263429 3.91652 -51.6913 -15.6245 95.3708 -4.00443 56.804 -0.638985 9.8527 15.0634 -1.49514 -9.26757 -39.4139 9.89225 -41.9894 1.47537 97.699 159.744 78.5272 -158.885 -5.7696 -4.10193 0.956612 8.26944 -6.32957 -19.22 
174.721 94.3605 177.701 -93.0974 43.7465 175.586 -70.1915 0 88.8779 102.468 68.6112 -27.5978 8.11207 17.3217 0.0399256 -145.654 23.3235 171.809 -152.976 61.7227 172.845 2.32182 2.19633 -21.3605 -86.5767 24.5155 -97.6937 13.7925 19.5677 -31.1195 15.722 -0.713287 -3.40035 0.433471 -2.4108 22.4958 -62.0695 -51.86 81.7427 13.7447 -14.5227 37.4778 7.43039 0.136969 1.93524 -55.4115 -18.1206 94.2937 -6.21369 62.6723 -4.12522 7.29465 9.4192 -0.90862 -9.19854 -39.4567 10.4291 -31.8629 -1.12894 97.4757 98.3789 86.4087 -94.789 -6.01222 -4.06727 0.976896 7.64742 -9.50109 -14.9257 
165.103 95.3583 168.564 -94.5222 45.2787 -177.486 -70.1915 0 88.8779 111.54 66.92 -28.8528 5.99786 17.7342 0.445005 -142.978 24.2977 173.408 -155.428 62.9701 175.2 2.44472 2.49575 -22.1862 -83.914 27.5974 -103.556 7.5126 11.5752 -24.5896 18.4556 -0.561681 -1.72954 0.404158 -2.1713 22.1123 -63.1422 -53.0315 78.7753 11.3158 -13.1415 33.0457 5.85936 0.070695 1.17599 -58.633 -6.67267 98.5479 -13.03 73.7433 -1.73314 3.36714 5.54677 -0.283279 -6.64646 -25.8262 10.4592 -32.3366 4.61774 92.4127 6.15275 68.9743 -4.95599 -5.18898 -2.36784 0.861031 5.93086 -3.23054 -13.9214 
155.593 96.7559 160.069 -94.9659 42.8367 -174.876 -70.1915 0 88.8779 112.355 65.3815 -27.4004 6.86428 16.4729 1.29987 -143.505 25.3996 172.429 -150.843 63.3893 169.364 2.51057 2.99565 -22.2834 -81.0126 30.2706 -106.473 6.82467 9.15374 -26.8689 16.4887 -0.373218 -0.866035 0.368548 -1.86147 21.6076 -57.0435 -52.5535 82.9751 9.81176 -11.1656 32.0673 3.93266 0.0818154 2.45693 -56.5217 -2.3026 97.3745 -27.4967 81.4839 14.5362 1.93215 2.97194 -0.182633 -4.28558 -9.07493 13.0337 -36.7111 4.52004 88.3394 2.28944 48.8147 1.01008 -2.67414 0.352243 0.475931 -5.49494 19.0553 -0.939417 
146.064 95.9268 151.882 -94.8677 37.7411 -173.86 -70.1915 0 88.8779 108.345 63.9733 -22.2282 10.2488 14.7863 0.31641 -143.064 25.8053 169.842 -151.963 64.4706 171.827 2.30688 2.52285 -20.9299 -78.68 30.7967 -107.216 9.09415 10.0861 -34.678 16.0491 -0.586715 -2.41867 0.297331 -1.08024 21.697 -49.5667 -52.5696 88.9663 9.5516 -10.8547 31.7874 5.27092 0.164438 3.68057 -49.66 -3.25129 92.6383 -66.8824 85.7228 58.3428 2.35395 6.42391 -0.0683476 -6.05467 -21.1687 15.1573 -38.6883 0.793161 82.0554 2.17933 45.0103 2.63837 -1.23387 4.43032 0.0518336 -7.2879 20.6435 1.47639 
136.711 93.5298 142.603 -99.0259 34.5641 -171.208 -70.1915 0 88.8779 113.572 63.3848 -28.202 9.80895 15.2428 1.38392 -141.015 27.879 168.073 -153.307 67.2008 173.526 2.11573 0.846027 -20.6591 -74.4075 28.9138 -108.622 16.2004 15.1299 -43.5858 10.4651 -0.762427 -6.43406 0.350938 -1.84365 20.2008 -43.9853 -53.0344 93.7655 9.74685 -11.2463 31.6159 3.69656 0.102005 3.4261 -45.0718 -2.63081 90.1325 -95.4743 86.2034 90.5186 4.16762 5.32627 -0.425551 -7.07796 -29.0479 14.7583 -42.7799 2.23751 83.8046 4.0619 56.5923 3.6017 -5.37376 -2.55201 0.884289 -0.046857 22.0662 -12.5732 
127.833 91.5438 133.273 -102.389 34.7966 -165.651 -70.1915 0 88.8779 121.462 63.6234 -32.9803 8.8568 16.4543 3.8981 -139.782 30.3203 167.92 -153.273 69.8832 174.686 2.21647 -0.0533197 -22.7479 -70.4474 24.9922 -109.816 21.7408 16.3149 -51.5256 12.2687 -0.787997 -5.49272 0.361987 -2.17895 19.1117 -44.415 -52.8136 94.9462 10.2488 -13.0347 29.6194 4.53141 0.0990123 2.529 -39.4437 3.98598 87.8035 -53.3555 85.8015 51.5258 5.08247 4.12636 -0.610598 -7.75805 -33.5843 14.1674 -48.0592 9.57105 85.2012 7.28609 66.59 2.99898 -5.99412 -2.88455 0.952574 7.52826 -3.79885 -18.3661 
119.38 91.1609 124.89 -96.7924 34.9064 -167.463 -70.1915 0 88.8779 112.814 66.1337 -22.9232 8.78222 16.176 5.28114 -139.275 30.9921 165.403 -150.498 70.6094 171.278 2.40092 0.815351 -23.621 -70.748 24.6453 -110.924 22.3472 14.8165 -55.0693 10.8758 -0.579659 -4.27789 0.374287 -1.94062 21.4833 -50.309 -50.8884 93.3828 8.17362 -10.5682 26.4741 6.53807 0.114526 1.84795 -29.6474 5.15856 85.9014 -11.6802 76.5739 10.8087 3.91958 7.34152 -0.308781 -7.80818 -34.588 15.2763 -49.195 10.6203 81.5466 9.36197 70.3034 2.11256 -7.41986 -5.17608 1.10647 9.83331 -15.0391 -18.8158 
111.107 92.2878 117.898 -96.8161 35.3185 -171.935 -70.1915 0 88.8779 112.527 66.6216 -26.6185 7.41125 16.6196 3.91265 -137.814 31.0371 163.961 -150.433 70.9711 171.034 2.40684 0.701682 -23.8258 -73.345 27.1296 -109.587 18.2727 11.9745 -54.3417 9.47337 -0.436196 -3.47128 0.413063 -2.23081 22.3275 -51.3162 -49.8155 95.7652 7.31138 -8.88245 26.322 7.89344 0.153633 2.05095 -32.0171 -0.516223 86.8505 -5.8144 62.982 -3.25013 2.28077 8.11645 0.0315553 -6.98158 -28.1947 13.9395 -52.9168 5.87783 82.4423 14.4389 76.7131 -5.09828 -6.92187 -6.13293 1.07892 7.84548 -12.2546 -13.2878 
102.778 92.0117 111.75 -99.0356 41.3829 -175.951 -70.1915 0 88.8779 118.579 67.0193 -34.8969 7.10053 19.0433 -0.751865 -139.069 30.4911 164.685 -157.069 70.8924 176.181 2.24086 -0.0609913 -23.0295 -77.3301 27.9976 -106.081 16.0991 9.9138 -55.4335 9.19077 -0.311699 -2.13334 0.508441 -3.36608 21.6831 -47.7097 -48.169 102.877 8.99118 -10.1491 31.2177 6.42196 0.242363 4.41497 -36.2847 -3.72193 90.0479 -4.9338 58.6865 -5.51398 0.589386 7.83028 0.334498 -6.12442 -21.2299 16.5796 -48.6233 2.31187 88.5689 102.957 86.1581 -97.7215 -5.90579 -2.34757 0.933296 1.37901 6.82858 -8.28587 
94.3823 91.375 104.884 -102.736 50.0428 -175.373 -70.1915 0 88.8779 123.854 67.371 -40.621 8.9225 20.8479 -3.4868 -141.416 28.786 164.664 -148.331 67.8311 168.289 2.20516 -0.233946 -22.8542 -81.6848 27.2317 -102.412 15.3167 8.72584 -57.3131 9.97505 -0.315796 -1.88406 0.397031 -2.14461 21.7872 -48.581 -46.0286 104.09 16.3281 -15.2007 42.5416 5.21137 0.224292 5.22531 -42.8815 -0.860585 95.0716 -5.4869 61.0201 -4.21707 4.3849 10.4319 -0.290636 -5.74492 -18.8351 14.8185 -43.2884 5.42993 94.0921 152.328 81.2358 -148.2 -6.49204 -3.26741 1.00652 3.26374 2.84355 -10.4811 
86.2978 89.7528 98.4618 -102.305 54.9423 -176.956 -70.1915 0 88.8779 122.147 67.0206 -40.5655 8.18635 20.1706 -2.2196 -143.428 28.1408 170.239 -154.833 67.3806 176.458 2.34482 0.530573 -23.3962 -84.1581 25.9164 -100.896 14.5907 8.28424 -57.1801 11.7532 -0.529306 -3.36527 0.223197 -0.246876 20.6097 -48.4052 -45.223 106.65 22.3406 -16.0561 52.2986 5.37634 0.204235 4.54885 -45.1088 1.06632 100.066 -9.06865 69.3356 -2.30277 7.15626 10.9682 -0.865515 -8.32128 -36.2501 12.6821 -34.1868 7.09763 94.435 151.211 81.2482 -145.035 -6.93063 -6.23659 1.08068 4.90796 -2.84557 -11.1908 
79.1703 89.2772 92.8593 -95.4423 54.4779 178.889 -70.1915 0 88.8779 120.246 64.6605 -37.5247 6.26814 18.0096 -0.527703 -147.183 28.1613 172.125 -153.953 66.93 174.022 2.36964 0.514199 -23.6784 -87.8787 25.4926 -102.948 13.8835 9.59531 -51.429 13.9418 -0.720305 -4.10221 0.200467 -0.0424632 21.9004 -52.8454 -45.6072 105.646 27.1386 -15.5985 59.6336 5.26531 0.254188 5.89643 -38.8466 3.61216 99.5114 -30.154 81.7907 14.3606 3.46824 5.6695 -0.295187 -6.80803 -26.91 13.0417 -25.5097 6.85891 89.4703 44.349 84.6642 -35.7786 -6.73531 -5.54349 1.05852 4.66339 -7.12558 -7.00335 
72.8577 89.4517 86.4708 -93.7819 53.3162 -179.115 -70.1915 0 88.8779 126.46 62.2597 -41.4454 5.58936 17.2362 1.02756 -148.722 28.7693 170.965 -153.763 67.5999 173.502 2.14645 -1.33973 -23.7327 -90.0912 26.2221 -107.666 10.166 8.57605 -43.5445 15.2741 -0.888782 -4.82656 0.342022 -1.43403 23.2375 -56.8504 -46.6434 102.907 26.6427 -12.6063 64.3335 5.4646 0.281616 6.28614 -33.0498 8.60472 94.5936 -129.358 83.7188 111.493 1.8885 1.83236 -0.239087 -4.54932 -10.821 13.2471 -26.0231 9.23289 84.9714 8.56186 70.1403 0.207692 -5.88503 -0.964541 0.903399 3.81465 -7.15968 -4.29844 
65.7753 88.6998 79.9942 -99.932 52.3861 -175.15 -70.1915 0 88.8779 130.116 59.7969 -45.7091 7.65973 17.1294 -1.40741 -145.657 28.2984 167.592 -153.505 67.642 175.966 2.1172 -1.87957 -24.2383 -88.4219 23.7727 -110.465 7.19612 6.06808 -40.3338 13.8018 -0.868657 -5.35352 0.365069 -1.54622 24.5067 -56.6929 -46.164 102.033 26.8027 -10.7158 68.1342 5.2862 0.276113 6.40548 -33.6749 9.51223 91.9552 -136.227 83.6895 126.59 3.65435 5.49563 -0.333567 -6.18045 -21.3064 17.6888 -32.7523 8.76167 86.1051 6.834 65.1345 4.35606 -5.8667 -0.215467 0.886187 2.25369 18.222 -15.5649 
58.4664 86.5861 73.3602 -100.647 50.3996 -176.174 -70.1915 0 88.8779 129.206 58.9795 -45.5838 6.6423 16.2909 -1.39069 -143.914 29.3501 167.86 -155.793 69.0013 177.396 2.20557 -1.4294 -24.6332 -85.6346 24.6411 -111.926 8.08928 8.45785 -35.2627 14.4264 -1.08151 -6.68825 0.368039 -1.81456 21.9488 -55.3817 -48.5396 103.158 29.8338 -11.5122 69.333 4.37056 0.204248 5.86679 -30.39 8.3466 87.9222 -86.2645 86.1244 79.4862 4.52306 3.47429 -0.544644 -6.56136 -25.0579 17.5038 -34.0784 6.85971 87.2717 14.9616 76.2895 -3.21046 -6.74432 -7.88655 1.0893 5.99825 10.3401 -20.682 
53.3219 85.5874 66.5607 -93.7032 53.5667 -179.765 -70.1915 0 88.8779 126.531 62.2376 -40.7431 8.07545 17.4984 -2.178 -145.7 30.5035 166.754 -154.762 70.1309 176.671 2.23986 -1.38361 -24.9938 -82.8072 25.2909 -113.404 6.04726 7.27359 -28.1026 16.1721 -0.890537 -4.47841 0.437841 -2.36791 23.0353 -57.9661 -46.9347 103.258 26.6607 -12.1802 65.1544 5.51731 0.266289 5.85686 -24.6322 14.0378 83.6574 -16.7496 77.0423 2.53628 3.09193 4.52135 -0.2828 -6.59175 -25.2621 19.306 -29.2551 11.7545 87.2037 38.8605 83.8646 -28.1056 -5.87452 -2.41903 0.931566 7.40213 -3.2514 -18.2951 
